# xmcd
#
# Track frame offsets: 
#        150
#        27346
#        45019
#        66495
#        83264
#        105795
#        124359
#        151257
#        172789
#        193779
#        216533
#
# Disc length: 3129 seconds
#
# Revision: 1
# Processed by: cddbd v1.5.2PL0 Copyright (c) Steve Scherf et al.
# Submitted via: ExactAudioCopy v1.0b3
#
DISCID=840c370b
DTITLE=Hoang Nam - Yeu Mot Chieu Nang Phai
DYEAR=1999
DGENRE=VietPOP
TTITLE0=Rieng mot goc troi
TTITLE1=Tinh thoi xot xa
TTITLE2=Trai tim khong ngu yen
TTITLE3=Khoi giang mo doi mat [remix]
TTITLE4=Co la muon thuo
TTITLE5=Ru tinh nhat phai
TTITLE6=Chieu mua Ha Noi
TTITLE7=Hoang Nam, Thanh Thuy - Yeu mot chieu nang phai
TTITLE8=Huong toc
TTITLE9=Ru doi di nhe
TTITLE10=Tinh thoi xot xa [club mix]
EXTD=
EXTT0=
EXTT1=
EXTT2=
EXTT3=
EXTT4=
EXTT5=
EXTT6=
EXTT7=
EXTT8=
EXTT9=
EXTT10=
PLAYORDER=
